<?xml version="1.0" encoding="UTF-8" standalone="no"?>
<!-- Created with Inkscape (http://www.inkscape.org/) -->

<svg
   viewBox="0 0 582 930"
   id="svg2"
   version="1.1"
   inkscape:version="1.3.2 (091e20e, 2023-11-25, custom)"
   sodipodi:docname="hat.svg"
   xmlns:inkscape="http://www.inkscape.org/namespaces/inkscape"
   xmlns:sodipodi="http://sodipodi.sourceforge.net/DTD/sodipodi-0.dtd"
   xmlns="http://www.w3.org/2000/svg"
   xmlns:svg="http://www.w3.org/2000/svg"
   xmlns:rdf="http://www.w3.org/1999/02/22-rdf-syntax-ns#"
   xmlns:cc="http://creativecommons.org/ns#"
   xmlns:dc="http://purl.org/dc/elements/1.1/">
  <defs
     id="defs4" />
  <sodipodi:namedview
     id="base"
     pagecolor="#ffffff"
     bordercolor="#666666"
     borderopacity="1.0"
     inkscape:pageopacity="0.0"
     inkscape:pageshadow="2"
     inkscape:zoom="0.70710678"
     inkscape:cx="-72.124892"
     inkscape:cy="252.43712"
     inkscape:document-units="px"
     inkscape:current-layer="layer1"
     showgrid="false"
     fit-margin-top="0"
     fit-margin-left="0"
     fit-margin-right="0"
     fit-margin-bottom="0"
     inkscape:window-width="2400"
     inkscape:window-height="1261"
     inkscape:window-x="-9"
     inkscape:window-y="-9"
     inkscape:window-maximized="1"
     inkscape:showpageshadow="2"
     inkscape:pagecheckerboard="0"
     inkscape:deskcolor="#d1d1d1" />
  <metadata
     id="metadata7">
    <rdf:RDF>
      <cc:Work
         rdf:about="">
        <dc:format>image/svg+xml</dc:format>
        <dc:type
           rdf:resource="http://purl.org/dc/dcmitype/StillImage" />
        <dc:title />
      </cc:Work>
    </rdf:RDF>
  </metadata>
  <g
     inkscape:label="Layer 1"
     inkscape:groupmode="layer"
     id="layer1"
     transform="translate(-62.857143,-38.169022)">
    <path
       style="fill:#ff6a9d;fill-opacity:1;fill-rule:nonzero;stroke:none;stroke-width:1.3616"
       d="M 62.857143,865.57061 487.96257,-112.4703 921.48593,861.97486 C 635.27633,988.38441 349.06674,1016.6752 62.857143,865.57061 Z"
       id="path2985"
       inkscape:connector-curvature="0"
       sodipodi:nodetypes="cccc" />
    <path
       sodipodi:type="star"
       style="fill:#fffcc2;fill-opacity:1;fill-rule:nonzero;stroke:none"
       id="path3755"
       sodipodi:sides="5"
       sodipodi:cx="345.71429"
       sodipodi:cy="523.79077"
       sodipodi:r1="84.852814"
       sodipodi:r2="33.941124"
       sodipodi:arg1="0.78539816"
       sodipodi:arg2="1.4137167"
       inkscape:flatsided="false"
       inkscape:rounded="0.05"
       inkscape:randomized="0"
       d="m 405.71429,583.79077 c -2.14827,2.14827 -51.68972,-26.95201 -54.69043,-26.47675 -3.00072,0.47527 -41.12495,43.46044 -43.83194,42.08116 -2.70698,-1.37927 9.65989,-57.48848 8.28061,-60.19546 -1.37927,-2.70698 -54.04164,-25.68214 -53.56637,-28.68285 0.47527,-3.00072 57.65986,-8.57782 59.80814,-10.7261 2.14827,-2.14827 7.72538,-59.33287 10.72609,-59.80813 3.00071,-0.47527 25.97587,52.18709 28.68285,53.56637 2.70698,1.37927 58.81619,-10.98759 60.19546,-8.28061 1.37928,2.70698 -41.60589,40.83122 -42.08115,43.83193 -0.47527,3.00072 28.62502,52.54217 26.47674,54.69044 z"
       inkscape:transform-center-x="5.7413928"
       inkscape:transform-center-y="-4.9049021"
       transform="matrix(1.4731376,0,0,1.2585085,0.02179534,-351.98617)" />
    <path
       transform="matrix(0.82132113,0.25271119,-0.29580917,0.70165857,147.98368,241.27647)"
       inkscape:transform-center-y="-2.2586716"
       inkscape:transform-center-x="-4.3761964"
       d="m 405.71429,583.79077 c -2.14827,2.14827 -51.68972,-26.95201 -54.69043,-26.47675 -3.00072,0.47527 -41.12495,43.46044 -43.83194,42.08116 -2.70698,-1.37927 9.65989,-57.48848 8.28061,-60.19546 -1.37927,-2.70698 -54.04164,-25.68214 -53.56637,-28.68285 0.47527,-3.00072 57.65986,-8.57782 59.80814,-10.7261 2.14827,-2.14827 7.72538,-59.33287 10.72609,-59.80813 3.00071,-0.47527 25.97587,52.18709 28.68285,53.56637 2.70698,1.37927 58.81619,-10.98759 60.19546,-8.28061 1.37928,2.70698 -41.60589,40.83122 -42.08115,43.83193 -0.47527,3.00072 28.62502,52.54217 26.47674,54.69044 z"
       inkscape:randomized="0"
       inkscape:rounded="0.05"
       inkscape:flatsided="false"
       sodipodi:arg2="1.4137167"
       sodipodi:arg1="0.78539816"
       sodipodi:r2="33.941124"
       sodipodi:r1="84.852814"
       sodipodi:cy="523.79077"
       sodipodi:cx="345.71429"
       sodipodi:sides="5"
       id="path3757"
       style="fill:#c2f0ff;fill-opacity:1;fill-rule:nonzero;stroke:none"
       sodipodi:type="star" />
    <path
       sodipodi:type="star"
       style="fill:#fffcc2;fill-opacity:1;fill-rule:nonzero;stroke:none"
       id="path3759"
       sodipodi:sides="5"
       sodipodi:cx="345.71429"
       sodipodi:cy="523.79077"
       sodipodi:r1="84.852814"
       sodipodi:r2="33.941124"
       sodipodi:arg1="0.78539816"
       sodipodi:arg2="1.4137167"
       inkscape:flatsided="false"
       inkscape:rounded="0.05"
       inkscape:randomized="0"
       d="m 405.71429,583.79077 c -2.14827,2.14827 -51.68972,-26.95201 -54.69043,-26.47675 -3.00072,0.47527 -41.12495,43.46044 -43.83194,42.08116 -2.70698,-1.37927 9.65989,-57.48848 8.28061,-60.19546 -1.37927,-2.70698 -54.04164,-25.68214 -53.56637,-28.68285 0.47527,-3.00072 57.65986,-8.57782 59.80814,-10.7261 2.14827,-2.14827 7.72538,-59.33287 10.72609,-59.80813 3.00071,-0.47527 25.97587,52.18709 28.68285,53.56637 2.70698,1.37927 58.81619,-10.98759 60.19546,-8.28061 1.37928,2.70698 -41.60589,40.83122 -42.08115,43.83193 -0.47527,3.00072 28.62502,52.54217 26.47674,54.69044 z"
       inkscape:transform-center-x="5.4879993"
       inkscape:transform-center-y="5.224066"
       transform="matrix(0.80921142,0.94250476,-1.1032418,0.69131319,807.08297,21.065662)" />
    <path
       transform="matrix(0.5614829,-0.09034523,0.10575293,0.47967753,87.029599,303.14551)"
       inkscape:transform-center-y="0.44481812"
       inkscape:transform-center-x="4.0704255"
       d="m 405.71429,583.79077 c -2.14827,2.14827 -51.68972,-26.95201 -54.69043,-26.47675 -3.00072,0.47527 -41.12495,43.46044 -43.83194,42.08116 -2.70698,-1.37927 9.65989,-57.48848 8.28061,-60.19546 -1.37927,-2.70698 -54.04164,-25.68214 -53.56637,-28.68285 0.47527,-3.00072 57.65986,-8.57782 59.80814,-10.7261 2.14827,-2.14827 7.72538,-59.33287 10.72609,-59.80813 3.00071,-0.47527 25.97587,52.18709 28.68285,53.56637 2.70698,1.37927 58.81619,-10.98759 60.19546,-8.28061 1.37928,2.70698 -41.60589,40.83122 -42.08115,43.83193 -0.47527,3.00072 28.62502,52.54217 26.47674,54.69044 z"
       inkscape:randomized="0"
       inkscape:rounded="0.05"
       inkscape:flatsided="false"
       sodipodi:arg2="1.4137167"
       sodipodi:arg1="0.78539816"
       sodipodi:r2="33.941124"
       sodipodi:r1="84.852814"
       sodipodi:cy="523.79077"
       sodipodi:cx="345.71429"
       sodipodi:sides="5"
       id="path3761"
       style="fill:#c7ffc2;fill-opacity:1;fill-rule:nonzero;stroke:none"
       sodipodi:type="star" />
    <path
       sodipodi:type="star"
       style="fill:#c2fdff;fill-opacity:1;fill-rule:nonzero;stroke:none"
       id="path3763"
       sodipodi:sides="5"
       sodipodi:cx="345.71429"
       sodipodi:cy="523.79077"
       sodipodi:r1="84.852814"
       sodipodi:r2="33.941124"
       sodipodi:arg1="0.78539816"
       sodipodi:arg2="1.4137167"
       inkscape:flatsided="false"
       inkscape:rounded="0.05"
       inkscape:randomized="0"
       d="m 405.71429,583.79077 c -2.14827,2.14827 -51.68972,-26.95201 -54.69043,-26.47675 -3.00072,0.47527 -41.12495,43.46044 -43.83194,42.08116 -2.70698,-1.37927 9.65989,-57.48848 8.28061,-60.19546 -1.37927,-2.70698 -54.04164,-25.68214 -53.56637,-28.68285 0.47527,-3.00072 57.65986,-8.57782 59.80814,-10.7261 2.14827,-2.14827 7.72538,-59.33287 10.72609,-59.80813 3.00071,-0.47527 25.97587,52.18709 28.68285,53.56637 2.70698,1.37927 58.81619,-10.98759 60.19546,-8.28061 1.37928,2.70698 -41.60589,40.83122 -42.08115,43.83193 -0.47527,3.00072 28.62502,52.54217 26.47674,54.69044 z"
       inkscape:transform-center-x="-5.8533597"
       inkscape:transform-center-y="-1.2821789"
       transform="matrix(0.57576811,-0.56057143,0.65617265,0.49188145,133.17881,494.82618)" />
    <path
       transform="matrix(0.69181034,-0.45484805,0.53241894,0.59101688,187.64281,673.35873)"
       inkscape:transform-center-y="2.5416206"
       inkscape:transform-center-x="-4.4207931"
       d="m 405.71429,583.79077 c -2.14827,2.14827 -51.68972,-26.95201 -54.69043,-26.47675 -3.00072,0.47527 -41.12495,43.46044 -43.83194,42.08116 -2.70698,-1.37927 9.65989,-57.48848 8.28061,-60.19546 -1.37927,-2.70698 -54.04164,-25.68214 -53.56637,-28.68285 0.47527,-3.00072 57.65986,-8.57782 59.80814,-10.7261 2.14827,-2.14827 7.72538,-59.33287 10.72609,-59.80813 3.00071,-0.47527 25.97587,52.18709 28.68285,53.56637 2.70698,1.37927 58.81619,-10.98759 60.19546,-8.28061 1.37928,2.70698 -41.60589,40.83122 -42.08115,43.83193 -0.47527,3.00072 28.62502,52.54217 26.47674,54.69044 z"
       inkscape:randomized="0"
       inkscape:rounded="0.05"
       inkscape:flatsided="false"
       sodipodi:arg2="1.4137167"
       sodipodi:arg1="0.78539816"
       sodipodi:r2="33.941124"
       sodipodi:r1="84.852814"
       sodipodi:cy="523.79077"
       sodipodi:cx="345.71429"
       sodipodi:sides="5"
       id="path3765"
       style="fill:#c2f0ff;fill-opacity:1;fill-rule:nonzero;stroke:none"
       sodipodi:type="star" />
    <path
       sodipodi:type="star"
       style="fill:#c7ffc2;fill-opacity:1;fill-rule:nonzero;stroke:none"
       id="path3769"
       sodipodi:sides="5"
       sodipodi:cx="345.71429"
       sodipodi:cy="523.79077"
       sodipodi:r1="84.852814"
       sodipodi:r2="33.941124"
       sodipodi:arg1="0.78539816"
       sodipodi:arg2="1.4137167"
       inkscape:flatsided="false"
       inkscape:rounded="0.05"
       inkscape:randomized="0"
       d="m 405.71429,583.79077 c -2.14827,2.14827 -51.68972,-26.95201 -54.69043,-26.47675 -3.00072,0.47527 -41.12495,43.46044 -43.83194,42.08116 -2.70698,-1.37927 9.65989,-57.48848 8.28061,-60.19546 -1.37927,-2.70698 -54.04164,-25.68214 -53.56637,-28.68285 0.47527,-3.00072 57.65986,-8.57782 59.80814,-10.7261 2.14827,-2.14827 7.72538,-59.33287 10.72609,-59.80813 3.00071,-0.47527 25.97587,52.18709 28.68285,53.56637 2.70698,1.37927 58.81619,-10.98759 60.19546,-8.28061 1.37928,2.70698 -41.60589,40.83122 -42.08115,43.83193 -0.47527,3.00072 28.62502,52.54217 26.47674,54.69044 z"
       inkscape:transform-center-x="0.16399203"
       inkscape:transform-center-y="3.9386498"
       transform="matrix(0.39959263,0.34887914,-0.40837783,0.3413739,403.23743,561.96063)" />
    <path
       transform="matrix(0.18886651,0.46067245,-0.53923665,0.16134956,940.39919,444.69936)"
       inkscape:transform-center-y="-1.5901162"
       inkscape:transform-center-x="2.7362768"
       d="m 405.71429,583.79077 c -2.14827,2.14827 -51.68972,-26.95201 -54.69043,-26.47675 -3.00072,0.47527 -41.12495,43.46044 -43.83194,42.08116 -2.70698,-1.37927 9.65989,-57.48848 8.28061,-60.19546 -1.37927,-2.70698 -54.04164,-25.68214 -53.56637,-28.68285 0.47527,-3.00072 57.65986,-8.57782 59.80814,-10.7261 2.14827,-2.14827 7.72538,-59.33287 10.72609,-59.80813 3.00071,-0.47527 25.97587,52.18709 28.68285,53.56637 2.70698,1.37927 58.81619,-10.98759 60.19546,-8.28061 1.37928,2.70698 -41.60589,40.83122 -42.08115,43.83193 -0.47527,3.00072 28.62502,52.54217 26.47674,54.69044 z"
       inkscape:randomized="0"
       inkscape:rounded="0.05"
       inkscape:flatsided="false"
       sodipodi:arg2="1.4137167"
       sodipodi:arg1="0.78539816"
       sodipodi:r2="33.941124"
       sodipodi:r1="84.852814"
       sodipodi:cy="523.79077"
       sodipodi:cx="345.71429"
       sodipodi:sides="5"
       id="path3771"
       style="fill:#c7ffc2;fill-opacity:1;fill-rule:nonzero;stroke:none"
       sodipodi:type="star" />
    <path
       sodipodi:type="star"
       style="fill:#c7ffc2;fill-opacity:1;fill-rule:nonzero;stroke:none"
       id="path3773"
       sodipodi:sides="5"
       sodipodi:cx="345.71429"
       sodipodi:cy="523.79077"
       sodipodi:r1="84.852814"
       sodipodi:r2="33.941124"
       sodipodi:arg1="0.78539816"
       sodipodi:arg2="1.4137167"
       inkscape:flatsided="false"
       inkscape:rounded="0.05"
       inkscape:randomized="0"
       d="m 405.71429,583.79077 c -2.14827,2.14827 -51.68972,-26.95201 -54.69043,-26.47675 -3.00072,0.47527 -41.12495,43.46044 -43.83194,42.08116 -2.70698,-1.37927 9.65989,-57.48848 8.28061,-60.19546 -1.37927,-2.70698 -54.04164,-25.68214 -53.56637,-28.68285 0.47527,-3.00072 57.65986,-8.57782 59.80814,-10.7261 2.14827,-2.14827 7.72538,-59.33287 10.72609,-59.80813 3.00071,-0.47527 25.97587,52.18709 28.68285,53.56637 2.70698,1.37927 58.81619,-10.98759 60.19546,-8.28061 1.37928,2.70698 -41.60589,40.83122 -42.08115,43.83193 -0.47527,3.00072 28.62502,52.54217 26.47674,54.69044 z"
       inkscape:transform-center-x="2.7362702"
       inkscape:transform-center-y="-1.5901153"
       transform="matrix(0.18886651,0.46067245,-0.53923665,0.16134956,738.01846,233.66597)" />
    <ellipse
       style="fill:#93ffac;fill-opacity:1;fill-rule:nonzero;stroke:none"
       id="path3777"
       cx="479.18796"
       cy="-42.0653"
       rx="187.4998"
       ry="160.18198" />
  </g>
</svg>
