<?xml version="1.0" encoding="UTF-8" standalone="no"?>
<!-- Created with Inkscape (http://www.inkscape.org/) -->

<svg
   width="3198.9053mm"
   height="2987.9263mm"
   viewBox="0 0 3198.9053 2987.9263"
   version="1.1"
   id="svg1"
   inkscape:version="1.3.2 (091e20e, 2023-11-25, custom)"
   sodipodi:docname="hat.svg"
   xmlns:inkscape="http://www.inkscape.org/namespaces/inkscape"
   xmlns:sodipodi="http://sodipodi.sourceforge.net/DTD/sodipodi-0.dtd"
   xmlns="http://www.w3.org/2000/svg"
   xmlns:svg="http://www.w3.org/2000/svg">
  <sodipodi:namedview
     id="namedview1"
     pagecolor="#ffffff"
     bordercolor="#666666"
     borderopacity="1.0"
     inkscape:showpageshadow="2"
     inkscape:pageopacity="0.0"
     inkscape:pagecheckerboard="0"
     inkscape:deskcolor="#d1d1d1"
     inkscape:document-units="mm"
     inkscape:zoom="0.044764271"
     inkscape:cx="994.09638"
     inkscape:cy="4479.0185"
     inkscape:window-width="3440"
     inkscape:window-height="1351"
     inkscape:window-x="2391"
     inkscape:window-y="-9"
     inkscape:window-maximized="1"
     inkscape:current-layer="layer1" />
  <defs
     id="defs1" />
  <g
     inkscape:label="Warstwa 1"
     inkscape:groupmode="layer"
     id="layer1"
     transform="translate(-509.53798,-133.61981)">
    <path
       style="fill:#ff6a9d;fill-opacity:1;fill-rule:nonzero;stroke:none;stroke-width:4.19914"
       d="M 509.53798,2859.5945 2093.3096,362.80661 3708.4433,2850.4153 c -1066.3017,322.7039 -2132.6036,394.9262 -3198.90532,9.1792 z"
       id="path2985"
       inkscape:connector-curvature="0"
       sodipodi:nodetypes="cccc" />
    <path
       sodipodi:type="star"
       style="fill:#fffcc2;fill-opacity:1;fill-rule:nonzero;stroke:none"
       id="path3755"
       sodipodi:sides="5"
       sodipodi:cx="345.71429"
       sodipodi:cy="523.79077"
       sodipodi:r1="84.852814"
       sodipodi:r2="33.941124"
       sodipodi:arg1="0.78539816"
       sodipodi:arg2="1.4137167"
       inkscape:flatsided="false"
       inkscape:rounded="0.05"
       inkscape:randomized="0"
       d="m 405.71429,583.79077 c -2.14827,2.14827 -51.68972,-26.95201 -54.69043,-26.47675 -3.00072,0.47527 -41.12495,43.46044 -43.83194,42.08116 -2.70698,-1.37927 9.65989,-57.48848 8.28061,-60.19546 -1.37927,-2.70698 -54.04164,-25.68214 -53.56637,-28.68285 0.47527,-3.00072 57.65986,-8.57782 59.80814,-10.7261 2.14827,-2.14827 7.72538,-59.33287 10.72609,-59.80813 3.00071,-0.47527 25.97587,52.18709 28.68285,53.56637 2.70698,1.37927 58.81619,-10.98759 60.19546,-8.28061 1.37928,2.70698 -41.60589,40.83122 -42.08115,43.83193 -0.47527,3.00072 28.62502,52.54217 26.47674,54.69044 z"
       inkscape:transform-center-x="80.844489"
       inkscape:transform-center-y="-47.325132"
       transform="matrix(5.4883177,0,0,3.2127785,275.43876,-248.64054)" />
    <path
       transform="matrix(3.0599119,0.64513281,-1.1020661,1.7912263,826.68521,1265.8678)"
       inkscape:transform-center-y="-21.792807"
       inkscape:transform-center-x="-61.621108"
       d="m 405.71429,583.79077 c -2.14827,2.14827 -51.68972,-26.95201 -54.69043,-26.47675 -3.00072,0.47527 -41.12495,43.46044 -43.83194,42.08116 -2.70698,-1.37927 9.65989,-57.48848 8.28061,-60.19546 -1.37927,-2.70698 -54.04164,-25.68214 -53.56637,-28.68285 0.47527,-3.00072 57.65986,-8.57782 59.80814,-10.7261 2.14827,-2.14827 7.72538,-59.33287 10.72609,-59.80813 3.00071,-0.47527 25.97587,52.18709 28.68285,53.56637 2.70698,1.37927 58.81619,-10.98759 60.19546,-8.28061 1.37928,2.70698 -41.60589,40.83122 -42.08115,43.83193 -0.47527,3.00072 28.62502,52.54217 26.47674,54.69044 z"
       inkscape:randomized="0"
       inkscape:rounded="0.05"
       inkscape:flatsided="false"
       sodipodi:arg2="1.4137167"
       sodipodi:arg1="0.78539816"
       sodipodi:r2="33.941124"
       sodipodi:r1="84.852814"
       sodipodi:cy="523.79077"
       sodipodi:cx="345.71429"
       sodipodi:sides="5"
       id="path3757"
       style="fill:#c2f0ff;fill-opacity:1;fill-rule:nonzero;stroke:none"
       sodipodi:type="star" />
    <path
       sodipodi:type="star"
       style="fill:#fffcc2;fill-opacity:1;fill-rule:nonzero;stroke:none"
       id="path3759"
       sodipodi:sides="5"
       sodipodi:cx="345.71429"
       sodipodi:cy="523.79077"
       sodipodi:r1="84.852814"
       sodipodi:r2="33.941124"
       sodipodi:arg1="0.78539816"
       sodipodi:arg2="1.4137167"
       inkscape:flatsided="false"
       inkscape:rounded="0.05"
       inkscape:randomized="0"
       d="m 405.71429,583.79077 c -2.14827,2.14827 -51.68972,-26.95201 -54.69043,-26.47675 -3.00072,0.47527 -41.12495,43.46044 -43.83194,42.08116 -2.70698,-1.37927 9.65989,-57.48848 8.28061,-60.19546 -1.37927,-2.70698 -54.04164,-25.68214 -53.56637,-28.68285 0.47527,-3.00072 57.65986,-8.57782 59.80814,-10.7261 2.14827,-2.14827 7.72538,-59.33287 10.72609,-59.80813 3.00071,-0.47527 25.97587,52.18709 28.68285,53.56637 2.70698,1.37927 58.81619,-10.98759 60.19546,-8.28061 1.37928,2.70698 -41.60589,40.83122 -42.08115,43.83193 -0.47527,3.00072 28.62502,52.54217 26.47674,54.69044 z"
       inkscape:transform-center-x="77.276515"
       inkscape:transform-center-y="50.404523"
       transform="matrix(3.014796,2.4060694,-4.1102347,1.764816,3282.2239,703.70334)" />
    <path
       transform="matrix(2.0918594,-0.23063752,0.39399285,1.2245429,599.59484,1423.8098)"
       inkscape:transform-center-y="4.291797"
       inkscape:transform-center-x="57.315702"
       d="m 405.71429,583.79077 c -2.14827,2.14827 -51.68972,-26.95201 -54.69043,-26.47675 -3.00072,0.47527 -41.12495,43.46044 -43.83194,42.08116 -2.70698,-1.37927 9.65989,-57.48848 8.28061,-60.19546 -1.37927,-2.70698 -54.04164,-25.68214 -53.56637,-28.68285 0.47527,-3.00072 57.65986,-8.57782 59.80814,-10.7261 2.14827,-2.14827 7.72538,-59.33287 10.72609,-59.80813 3.00071,-0.47527 25.97587,52.18709 28.68285,53.56637 2.70698,1.37927 58.81619,-10.98759 60.19546,-8.28061 1.37928,2.70698 -41.60589,40.83122 -42.08115,43.83193 -0.47527,3.00072 28.62502,52.54217 26.47674,54.69044 z"
       inkscape:randomized="0"
       inkscape:rounded="0.05"
       inkscape:flatsided="false"
       sodipodi:arg2="1.4137167"
       sodipodi:arg1="0.78539816"
       sodipodi:r2="33.941124"
       sodipodi:r1="84.852814"
       sodipodi:cy="523.79077"
       sodipodi:cx="345.71429"
       sodipodi:sides="5"
       id="path3761"
       style="fill:#c7ffc2;fill-opacity:1;fill-rule:nonzero;stroke:none"
       sodipodi:type="star" />
    <path
       sodipodi:type="star"
       style="fill:#c2fdff;fill-opacity:1;fill-rule:nonzero;stroke:none"
       id="path3763"
       sodipodi:sides="5"
       sodipodi:cx="345.71429"
       sodipodi:cy="523.79077"
       sodipodi:r1="84.852814"
       sodipodi:r2="33.941124"
       sodipodi:arg1="0.78539816"
       sodipodi:arg2="1.4137167"
       inkscape:flatsided="false"
       inkscape:rounded="0.05"
       inkscape:randomized="0"
       d="m 405.71429,583.79077 c -2.14827,2.14827 -51.68972,-26.95201 -54.69043,-26.47675 -3.00072,0.47527 -41.12495,43.46044 -43.83194,42.08116 -2.70698,-1.37927 9.65989,-57.48848 8.28061,-60.19546 -1.37927,-2.70698 -54.04164,-25.68214 -53.56637,-28.68285 0.47527,-3.00072 57.65986,-8.57782 59.80814,-10.7261 2.14827,-2.14827 7.72538,-59.33287 10.72609,-59.80813 3.00071,-0.47527 25.97587,52.18709 28.68285,53.56637 2.70698,1.37927 58.81619,-10.98759 60.19546,-8.28061 1.37928,2.70698 -41.60589,40.83122 -42.08115,43.83193 -0.47527,3.00072 28.62502,52.54217 26.47674,54.69044 z"
       inkscape:transform-center-x="-82.421093"
       inkscape:transform-center-y="-12.371284"
       transform="matrix(2.1450804,-1.4310527,2.4446352,1.2556977,771.52818,1913.1409)" />
    <path
       transform="matrix(2.5774071,-1.1611571,1.9835787,1.5087752,974.43917,2368.9071)"
       inkscape:transform-center-y="24.52293"
       inkscape:transform-center-x="-62.249227"
       d="m 405.71429,583.79077 c -2.14827,2.14827 -51.68972,-26.95201 -54.69043,-26.47675 -3.00072,0.47527 -41.12495,43.46044 -43.83194,42.08116 -2.70698,-1.37927 9.65989,-57.48848 8.28061,-60.19546 -1.37927,-2.70698 -54.04164,-25.68214 -53.56637,-28.68285 0.47527,-3.00072 57.65986,-8.57782 59.80814,-10.7261 2.14827,-2.14827 7.72538,-59.33287 10.72609,-59.80813 3.00071,-0.47527 25.97587,52.18709 28.68285,53.56637 2.70698,1.37927 58.81619,-10.98759 60.19546,-8.28061 1.37928,2.70698 -41.60589,40.83122 -42.08115,43.83193 -0.47527,3.00072 28.62502,52.54217 26.47674,54.69044 z"
       inkscape:randomized="0"
       inkscape:rounded="0.05"
       inkscape:flatsided="false"
       sodipodi:arg2="1.4137167"
       sodipodi:arg1="0.78539816"
       sodipodi:r2="33.941124"
       sodipodi:r1="84.852814"
       sodipodi:cy="523.79077"
       sodipodi:cx="345.71429"
       sodipodi:sides="5"
       id="path3765"
       style="fill:#c2f0ff;fill-opacity:1;fill-rule:nonzero;stroke:none"
       sodipodi:type="star" />
    <path
       sodipodi:type="star"
       style="fill:#c7ffc2;fill-opacity:1;fill-rule:nonzero;stroke:none"
       id="path3769"
       sodipodi:sides="5"
       sodipodi:cx="345.71429"
       sodipodi:cy="523.79077"
       sodipodi:r1="84.852814"
       sodipodi:r2="33.941124"
       sodipodi:arg1="0.78539816"
       sodipodi:arg2="1.4137167"
       inkscape:flatsided="false"
       inkscape:rounded="0.05"
       inkscape:randomized="0"
       d="m 405.71429,583.79077 c -2.14827,2.14827 -51.68972,-26.95201 -54.69043,-26.47675 -3.00072,0.47527 -41.12495,43.46044 -43.83194,42.08116 -2.70698,-1.37927 9.65989,-57.48848 8.28061,-60.19546 -1.37927,-2.70698 -54.04164,-25.68214 -53.56637,-28.68285 0.47527,-3.00072 57.65986,-8.57782 59.80814,-10.7261 2.14827,-2.14827 7.72538,-59.33287 10.72609,-59.80813 3.00071,-0.47527 25.97587,52.18709 28.68285,53.56637 2.70698,1.37927 58.81619,-10.98759 60.19546,-8.28061 1.37928,2.70698 -41.60589,40.83122 -42.08115,43.83193 -0.47527,3.00072 28.62502,52.54217 26.47674,54.69044 z"
       inkscape:transform-center-x="2.3092655"
       inkscape:transform-center-y="38.002125"
       transform="matrix(1.4887212,0.89063468,-1.5214514,0.87147501,1777.6578,2084.5249)" />
    <path
       transform="matrix(0.70364065,1.1760258,-2.0089785,0.41190061,3778.9065,1785.1749)"
       inkscape:transform-center-y="-15.342426"
       inkscape:transform-center-x="38.529315"
       d="m 405.71429,583.79077 c -2.14827,2.14827 -51.68972,-26.95201 -54.69043,-26.47675 -3.00072,0.47527 -41.12495,43.46044 -43.83194,42.08116 -2.70698,-1.37927 9.65989,-57.48848 8.28061,-60.19546 -1.37927,-2.70698 -54.04164,-25.68214 -53.56637,-28.68285 0.47527,-3.00072 57.65986,-8.57782 59.80814,-10.7261 2.14827,-2.14827 7.72538,-59.33287 10.72609,-59.80813 3.00071,-0.47527 25.97587,52.18709 28.68285,53.56637 2.70698,1.37927 58.81619,-10.98759 60.19546,-8.28061 1.37928,2.70698 -41.60589,40.83122 -42.08115,43.83193 -0.47527,3.00072 28.62502,52.54217 26.47674,54.69044 z"
       inkscape:randomized="0"
       inkscape:rounded="0.05"
       inkscape:flatsided="false"
       sodipodi:arg2="1.4137167"
       sodipodi:arg1="0.78539816"
       sodipodi:r2="33.941124"
       sodipodi:r1="84.852814"
       sodipodi:cy="523.79077"
       sodipodi:cx="345.71429"
       sodipodi:sides="5"
       id="path3771"
       style="fill:#c7ffc2;fill-opacity:1;fill-rule:nonzero;stroke:none"
       sodipodi:type="star" />
    <path
       sodipodi:type="star"
       style="fill:#c7ffc2;fill-opacity:1;fill-rule:nonzero;stroke:none"
       id="path3773"
       sodipodi:sides="5"
       sodipodi:cx="345.71429"
       sodipodi:cy="523.79077"
       sodipodi:r1="84.852814"
       sodipodi:r2="33.941124"
       sodipodi:arg1="0.78539816"
       sodipodi:arg2="1.4137167"
       inkscape:flatsided="false"
       inkscape:rounded="0.05"
       inkscape:randomized="0"
       d="m 405.71429,583.79077 c -2.14827,2.14827 -51.68972,-26.95201 -54.69043,-26.47675 -3.00072,0.47527 -41.12495,43.46044 -43.83194,42.08116 -2.70698,-1.37927 9.65989,-57.48848 8.28061,-60.19546 -1.37927,-2.70698 -54.04164,-25.68214 -53.56637,-28.68285 0.47527,-3.00072 57.65986,-8.57782 59.80814,-10.7261 2.14827,-2.14827 7.72538,-59.33287 10.72609,-59.80813 3.00071,-0.47527 25.97587,52.18709 28.68285,53.56637 2.70698,1.37927 58.81619,-10.98759 60.19546,-8.28061 1.37928,2.70698 -41.60589,40.83122 -42.08115,43.83193 -0.47527,3.00072 28.62502,52.54217 26.47674,54.69044 z"
       inkscape:transform-center-x="38.529332"
       inkscape:transform-center-y="-15.342328"
       transform="matrix(0.70364065,1.1760258,-2.0089785,0.41190061,3024.9174,1246.4392)" />
    <ellipse
       style="fill:#93ffac;fill-opacity:1;fill-rule:nonzero;stroke:none;stroke-width:4.19914"
       id="path3777"
       cx="2060.6189"
       cy="542.53979"
       rx="698.54889"
       ry="408.91998" />
  </g>
</svg>
